<svg width="35" height="35" viewBox="0 0 35 35" fill="none" xmlns="http://www.w3.org/2000/svg">
<path d="M13.125 32.0833H21.875C29.1667 32.0833 32.0833 29.1667 32.0833 21.875V13.125C32.0833 5.83333 29.1667 2.91667 21.875 2.91667H13.125C5.83334 2.91667 2.91667 5.83333 2.91667 13.125V21.875C2.91667 29.1667 5.83334 32.0833 13.125 32.0833Z" stroke="white" stroke-width="1.5" stroke-linecap="round" stroke-linejoin="round"/>
<path d="M24.7917 3.55833V18.1125C24.7917 20.9854 22.7354 22.1083 20.2125 20.5917L18.2875 19.4396C17.85 19.1771 17.15 19.1771 16.7125 19.4396L14.7875 20.5917C12.2646 22.0938 10.2083 20.9854 10.2083 18.1125V3.55833" stroke="white" stroke-width="1.5" stroke-linecap="round" stroke-linejoin="round"/>
<path d="M13.125 32.0833H21.875C29.1667 32.0833 32.0833 29.1667 32.0833 21.875V13.125C32.0833 5.83333 29.1667 2.91667 21.875 2.91667H13.125C5.83334 2.91667 2.91667 5.83333 2.91667 13.125V21.875C2.91667 29.1667 5.83334 32.0833 13.125 32.0833Z" stroke="white" stroke-width="1.5" stroke-linecap="round" stroke-linejoin="round"/>
<path d="M24.7917 3.55833V18.1125C24.7917 20.9854 22.7354 22.1083 20.2125 20.5917L18.2875 19.4396C17.85 19.1771 17.15 19.1771 16.7125 19.4396L14.7875 20.5917C12.2646 22.0938 10.2083 20.9854 10.2083 18.1125V3.55833" stroke="white" stroke-width="1.5" stroke-linecap="round" stroke-linejoin="round"/>
</svg>
