<svg width="60" height="50" viewBox="0 0 60 50" fill="none" xmlns="http://www.w3.org/2000/svg">
<path d="M21.25 39.5834H20C10 39.5834 5 37.5001 5 27.0834V16.6667C5 8.33341 10 4.16675 20 4.16675H40C50 4.16675 55 8.33341 55 16.6667V27.0834C55 35.4167 50 39.5834 40 39.5834H38.75C37.975 39.5834 37.225 39.8959 36.75 40.4167L33 44.5834C31.35 46.4167 28.65 46.4167 27 44.5834L23.25 40.4167C22.85 39.9584 21.925 39.5834 21.25 39.5834V39.5834Z" stroke="#D2BBEF" stroke-width="1.5" stroke-miterlimit="10" stroke-linecap="round" stroke-linejoin="round"/>
<path d="M17.5 16.6667H42.5M17.5 27.0834H32.5" stroke="#D2BBEF" stroke-width="1.5" stroke-linecap="round" stroke-linejoin="round"/>
</svg>
