<svg width="68" height="54" viewBox="0 0 68 54" fill="none" xmlns="http://www.w3.org/2000/svg">
<path d="M61.0654 25.4554L61.0654 25.4555L61.0721 25.4596C61.3869 25.647 61.6384 25.8856 61.8117 26.154C61.9841 26.4209 62.0753 26.7111 62.0833 27.0031V35.9998C62.0833 36.5091 61.8289 37.0131 61.348 37.395C60.8657 37.778 60.2014 37.9998 59.5 37.9998H58.9333H58.5442L58.706 38.3537C59.1518 39.3292 59.294 40.3725 59.1233 41.3972C58.9524 42.4222 58.4722 43.4051 57.7165 44.2614C56.9604 45.118 55.9512 45.822 54.771 46.3096C53.5909 46.7972 52.2778 47.0527 50.9433 47.0527C49.6089 47.0527 48.2957 46.7972 47.1156 46.3096C45.9354 45.822 44.9262 45.118 44.1702 44.2614C43.4144 43.4051 42.9342 42.4222 42.7634 41.3972C42.5926 40.3725 42.7348 39.3292 43.1807 38.3537L43.3425 37.9998H42.9533H24.9333H24.5457L24.7056 38.3529C25.1521 39.3389 25.2886 40.3931 25.1063 41.4267C24.9239 42.4608 24.4265 43.4498 23.65 44.3072C22.8731 45.165 21.8406 45.8644 20.6384 46.3409C19.4364 46.8173 18.104 47.0552 16.7569 47.0322C15.4098 47.0093 14.0918 46.7264 12.9172 46.2098C11.7425 45.6932 10.7497 44.9599 10.0206 44.0774C9.29193 43.1955 8.84866 42.1915 8.72229 41.1527C8.59595 40.1143 8.78913 39.0652 9.28894 38.0942L9.42088 37.8379L9.14847 37.7435C8.15536 37.3996 7.32247 36.8316 6.75008 36.1194L6.55522 36.2761L6.75008 36.1194C6.17856 35.4084 5.89215 34.5861 5.91655 33.7571L5.91666 33.7571V33.7498V11.2498V11.242L5.91618 11.2343C5.85177 10.1921 6.30551 9.15842 7.20527 8.36007C8.1055 7.56132 9.37569 7.06814 10.7445 6.99976H43.0332C44.4122 7.05694 45.6968 7.54552 46.6089 8.34587C47.5203 9.14561 47.9812 10.1855 47.9171 11.2345L47.9167 11.2421V11.2498V16.9198V17.0567L48.0321 17.1304L61.0654 25.4554ZM56.9167 28.0798V27.9424L56.8007 27.8687L48.3007 22.4687L47.9167 22.2247V22.6798V33.7498V33.9998H48.1667H56.6667H56.9167V33.7498V28.0798ZM11.0833 33.7498V33.9998H11.3333H34H42.5H42.75V33.7498V11.2498V10.9998H42.5H11.3333H11.0833V11.2498V33.7498ZM19.5471 41.9107C19.8928 41.4999 20.0833 41.0089 20.0833 40.4998C20.0833 39.8157 19.7407 39.175 19.1589 38.713C18.5786 38.2521 17.8015 37.9998 17 37.9998C16.4014 37.9998 15.813 38.1405 15.3087 38.4081C14.8045 38.6757 14.4016 39.0611 14.1607 39.5231C13.9189 39.9867 13.8539 40.5017 13.9786 40.9995C14.1029 41.4959 14.4074 41.9421 14.8411 42.2865C15.2744 42.6306 15.8204 42.8606 16.4082 42.9535C16.9962 43.0463 17.6061 42.9989 18.1624 42.816C18.7185 42.6331 19.2022 42.3206 19.5471 41.9107ZM53.5471 41.9107C53.8928 41.4999 54.0833 41.0089 54.0833 40.4998C54.0833 39.8157 53.7408 39.175 53.1589 38.713C52.5786 38.2521 51.8015 37.9998 51 37.9998C50.4014 37.9998 49.813 38.1405 49.3087 38.4081C48.8045 38.6757 48.4016 39.0611 48.1607 39.5231C47.9189 39.9867 47.8539 40.5017 47.9786 40.9995C48.1029 41.4959 48.4074 41.9421 48.8411 42.2865C49.2744 42.6306 49.8204 42.8606 50.4082 42.9535C50.9962 43.0463 51.6061 42.9989 52.1624 42.816C52.7185 42.6331 53.2022 42.3206 53.5471 41.9107Z" fill="#D2BBEF" fill-opacity="0.4" stroke="black" stroke-width="0.5"/>
</svg>
