<svg width="31" height="31" viewBox="0 0 31 31" fill="none" xmlns="http://www.w3.org/2000/svg">
<path d="M12.7734 1.92787L2.66716 10.0216C1.52966 10.9258 0.800492 12.8362 1.04841 14.2654L2.98799 25.8737C3.33799 27.9445 5.32133 29.6216 7.42133 29.6216H23.7547C25.8401 29.6216 27.838 27.93 28.188 25.8737L30.1276 14.2654C30.3609 12.8362 29.6317 10.9258 28.5088 10.0216L18.4026 1.94246C16.8422 0.688289 14.3192 0.688289 12.7734 1.92787V1.92787Z" stroke="white" stroke-width="1.5" stroke-linecap="round" stroke-linejoin="round"/>
<path d="M15.588 20.4195C16.5549 20.4195 17.4822 20.0354 18.166 19.3517C18.8497 18.668 19.2338 17.7406 19.2338 16.7737C19.2338 15.8068 18.8497 14.8794 18.166 14.1957C17.4822 13.512 16.5549 13.1279 15.588 13.1279C14.621 13.1279 13.6937 13.512 13.01 14.1957C12.3263 14.8794 11.9421 15.8068 11.9421 16.7737C11.9421 17.7406 12.3263 18.668 13.01 19.3517C13.6937 20.0354 14.621 20.4195 15.588 20.4195Z" stroke="white" stroke-width="1.5" stroke-linecap="round" stroke-linejoin="round"/>
</svg>
