<svg width="40" height="40" viewBox="0 0 40 40" fill="none" xmlns="http://www.w3.org/2000/svg">
<path d="M30.7833 28.05L31.4333 33.3167C31.6 34.7 30.1167 35.6667 28.9333 34.95L21.95 30.8C21.1833 30.8 20.4333 30.75 19.7 30.65C20.9633 29.1855 21.6609 27.3174 21.6667 25.3833C21.6667 20.65 17.5667 16.8167 12.5 16.8167C10.5667 16.8167 8.78334 17.3667 7.3 18.3333C7.25 17.9167 7.23334 17.5 7.23334 17.0667C7.23334 9.48334 13.8167 3.33334 21.95 3.33334C30.0833 3.33334 36.6667 9.48334 36.6667 17.0667C36.6667 21.5667 34.35 25.55 30.7833 28.05Z" stroke="white" stroke-width="1.5" stroke-linecap="round" stroke-linejoin="round"/>
<path d="M21.6667 25.3833C21.6667 27.3667 20.9333 29.2 19.7 30.65C18.05 32.65 15.4333 33.9333 12.5 33.9333L8.14999 36.5167C7.41666 36.9667 6.48333 36.35 6.58333 35.5L6.99999 32.2167C4.76666 30.6667 3.33333 28.1833 3.33333 25.3833C3.33333 22.45 4.9 19.8667 7.3 18.3333C8.78333 17.3667 10.5667 16.8167 12.5 16.8167C17.5667 16.8167 21.6667 20.65 21.6667 25.3833Z" stroke="white" stroke-width="1.5" stroke-linecap="round" stroke-linejoin="round"/>
<path d="M14.3167 28.75C14.2501 28.7503 14.1843 28.7345 14.125 28.7041L12 27.5916L9.87502 28.7041C9.80602 28.7404 9.72822 28.7566 9.65047 28.7509C9.57272 28.7452 9.49814 28.7177 9.4352 28.6717C9.37226 28.6257 9.3235 28.563 9.29445 28.4906C9.26539 28.4183 9.25722 28.3392 9.27086 28.2625L9.68752 25.9166L7.97086 24.25C7.9173 24.1965 7.8793 24.1295 7.86095 24.0561C7.8426 23.9827 7.84458 23.9057 7.86669 23.8333C7.89084 23.7593 7.93526 23.6935 7.99492 23.6434C8.05457 23.5933 8.12707 23.5609 8.20419 23.55L10.5792 23.2041L11.625 21.0666C11.6591 20.9962 11.7124 20.9368 11.7787 20.8952C11.8451 20.8537 11.9217 20.8316 12 20.8316C12.0783 20.8316 12.155 20.8537 12.2213 20.8952C12.2876 20.9368 12.3409 20.9962 12.375 21.0666L13.4334 23.2L15.8084 23.5458C15.8855 23.5568 15.958 23.5891 16.0176 23.6392C16.0773 23.6893 16.1217 23.7551 16.1459 23.8291C16.168 23.9015 16.1699 23.9785 16.1516 24.0519C16.1332 24.1253 16.0952 24.1924 16.0417 24.2458L14.325 25.9125L14.7417 28.2583C14.7566 28.3364 14.7488 28.4172 14.7192 28.491C14.6897 28.5648 14.6397 28.6287 14.575 28.675C14.4996 28.7279 14.4087 28.7542 14.3167 28.75Z" fill="white"/>
<path d="M20.3167 15.75C20.25 15.7503 20.1843 15.7346 20.125 15.7042L18 14.5917L15.875 15.7042C15.806 15.7405 15.7282 15.7567 15.6505 15.7509C15.5727 15.7452 15.4981 15.7178 15.4352 15.6718C15.3722 15.6258 15.3235 15.563 15.2944 15.4907C15.2654 15.4183 15.2572 15.3393 15.2708 15.2625L15.6875 12.9167L13.9708 11.25C13.9173 11.1966 13.8793 11.1295 13.8609 11.0561C13.8426 10.9827 13.8446 10.9057 13.8667 10.8333C13.8908 10.7593 13.9352 10.6935 13.9949 10.6434C14.0546 10.5933 14.1271 10.561 14.2042 10.55L16.5792 10.2042L17.625 8.06668C17.6591 7.99623 17.7124 7.93682 17.7787 7.89525C17.845 7.85368 17.9217 7.83163 18 7.83163C18.0783 7.83163 18.155 7.85368 18.2213 7.89525C18.2876 7.93682 18.3409 7.99623 18.375 8.06668L19.4333 10.2L21.8083 10.5458C21.8855 10.5568 21.958 10.5892 22.0176 10.6392C22.0773 10.6893 22.1217 10.7551 22.1458 10.8292C22.1679 10.9015 22.1699 10.9786 22.1516 11.052C22.1332 11.1254 22.0952 11.1924 22.0417 11.2458L20.325 12.9125L20.7417 15.2583C20.7565 15.3365 20.7488 15.4172 20.7192 15.491C20.6897 15.5649 20.6397 15.6287 20.575 15.675C20.4996 15.7279 20.4087 15.7543 20.3167 15.75Z" fill="white"/>
<path d="M30.3167 15.75C30.25 15.7503 30.1843 15.7346 30.125 15.7042L28 14.5917L25.875 15.7042C25.806 15.7405 25.7282 15.7567 25.6505 15.7509C25.5727 15.7452 25.4981 15.7178 25.4352 15.6718C25.3722 15.6258 25.3235 15.563 25.2944 15.4907C25.2654 15.4183 25.2572 15.3393 25.2708 15.2625L25.6875 12.9167L23.9708 11.25C23.9173 11.1966 23.8793 11.1295 23.8609 11.0561C23.8426 10.9827 23.8446 10.9057 23.8667 10.8333C23.8908 10.7593 23.9352 10.6935 23.9949 10.6434C24.0546 10.5933 24.1271 10.561 24.2042 10.55L26.5792 10.2042L27.625 8.06668C27.6591 7.99623 27.7124 7.93682 27.7787 7.89525C27.845 7.85368 27.9217 7.83163 28 7.83163C28.0783 7.83163 28.155 7.85368 28.2213 7.89525C28.2876 7.93682 28.3409 7.99623 28.375 8.06668L29.4333 10.2L31.8083 10.5458C31.8855 10.5568 31.958 10.5892 32.0176 10.6392C32.0773 10.6893 32.1217 10.7551 32.1458 10.8292C32.1679 10.9015 32.1699 10.9786 32.1516 11.052C32.1332 11.1254 32.0952 11.1924 32.0417 11.2458L30.325 12.9125L30.7417 15.2583C30.7565 15.3365 30.7488 15.4172 30.7192 15.491C30.6897 15.5649 30.6397 15.6287 30.575 15.675C30.4996 15.7279 30.4087 15.7543 30.3167 15.75Z" fill="white"/>
</svg>
